<?xml version="1.0" standalone="no"?>
<!DOCTYPE svg PUBLIC "-//W3C//DTD SVG 20010904//EN"
 "http://www.w3.org/TR/2001/REC-SVG-20010904/DTD/svg10.dtd">
<svg version="1.0" xmlns="http://www.w3.org/2000/svg"
 width="2048.000000pt" height="2048.000000pt" viewBox="0 0 2048.000000 2048.000000"
 preserveAspectRatio="xMidYMid meet">

<g transform="translate(0.000000,2048.000000) scale(0.100000,-0.100000)"
fill="#000000" stroke="none">
<path d="M4747 14729 c-117 -8 -368 -61 -519 -110 -200 -64 -420 -188 -571
-322 -130 -114 -291 -326 -400 -522 -67 -121 -161 -346 -182 -435 -44 -188
-82 -559 -69 -685 42 -424 200 -917 473 -1477 126 -259 145 -323 145 -488 l0
-125 -56 -136 c-56 -135 -131 -290 -175 -362 -39 -62 -64 -107 -103 -187 -34
-68 -57 -124 -133 -320 -89 -230 -185 -568 -211 -745 -5 -32 -15 -112 -21
-160 -2 -17 -9 -114 -15 -217 -24 -369 6 -774 75 -1003 63 -209 223 -363 413
-396 93 -16 324 -6 457 21 85 17 144 37 262 90 258 118 773 380 958 489 44 26
125 74 180 106 55 32 118 69 140 83 22 14 56 35 75 47 146 92 202 127 283 179
124 80 638 423 865 577 274 186 462 308 642 419 63 39 122 75 130 80 8 5 35
22 60 36 25 15 61 37 80 49 244 153 930 485 1240 600 41 15 89 33 105 40 53
22 309 99 366 110 9 2 33 8 55 14 132 36 341 77 434 86 36 4 94 10 130 15 84
10 676 10 760 0 36 -5 94 -11 130 -15 93 -9 302 -50 434 -86 22 -6 46 -12 55
-14 57 -11 313 -88 366 -110 17 -7 64 -25 105 -40 310 -115 996 -447 1240
-600 19 -12 55 -34 80 -49 25 -14 52 -31 60 -36 8 -5 67 -41 130 -80 180 -111
368 -233 642 -419 384 -261 838 -561 1035 -685 43 -27 95 -59 116 -72 95 -61
118 -75 212 -129 55 -32 136 -80 180 -106 185 -109 700 -371 958 -489 118 -53
177 -73 262 -90 133 -27 364 -37 457 -21 190 33 350 187 413 396 69 229 99
634 75 1003 -6 103 -13 200 -15 217 -6 48 -16 128 -21 160 -26 177 -122 515
-211 745 -76 196 -99 252 -133 320 -39 80 -64 125 -103 187 -44 72 -119 227
-175 362 l-56 136 0 125 c0 165 19 229 145 488 273 560 431 1053 473 1477 13
126 -25 497 -69 685 -37 153 -174 443 -296 621 -188 274 -377 442 -642 569
-147 71 -231 99 -447 151 -141 33 -194 41 -360 51 -170 10 -214 9 -345 -5
-223 -25 -390 -71 -653 -178 -342 -139 -612 -305 -1021 -628 -233 -185 -462
-391 -726 -656 -156 -156 -381 -391 -453 -474 -12 -14 -51 -57 -86 -96 -104
-114 -326 -386 -493 -603 -39 -52 -84 -108 -100 -125 -16 -18 -54 -63 -84
-102 -31 -38 -109 -131 -174 -205 -64 -74 -158 -182 -208 -240 -50 -58 -114
-130 -143 -160 -28 -30 -81 -89 -119 -130 -141 -156 -382 -394 -445 -438 -140
-101 -285 -167 -370 -167 -85 0 -230 66 -370 167 -63 44 -304 282 -445 438
-38 41 -91 100 -119 130 -29 30 -93 102 -143 160 -50 58 -144 166 -208 240
-65 74 -143 167 -174 205 -30 39 -68 84 -84 102 -16 17 -61 73 -100 125 -167
217 -389 489 -493 603 -35 39 -74 82 -86 96 -217 249 -649 676 -949 940 -237
207 -631 499 -819 607 -277 158 -587 287 -838 347 -202 49 -407 63 -665 44z
m683 -505 c293 -45 578 -173 816 -369 77 -63 226 -213 286 -290 311 -393 446
-909 363 -1387 -70 -408 -155 -597 -371 -829 -214 -229 -327 -320 -539 -433
-173 -93 -436 -148 -692 -147 -151 1 -236 11 -379 47 -128 31 -190 56 -389
156 -180 90 -198 103 -357 261 -268 264 -398 482 -497 837 -82 295 -95 381
-95 605 0 187 2 207 28 310 39 151 69 231 136 361 80 155 136 236 260 372 123
136 187 194 273 253 61 42 205 114 282 142 22 8 72 26 110 40 74 27 216 64
288 74 111 15 150 18 257 15 63 -1 162 -9 220 -18z m10039 11 c112 -14 249
-46 346 -82 39 -14 88 -32 110 -40 75 -27 222 -100 281 -140 83 -57 152 -120
274 -255 124 -136 180 -217 260 -372 67 -130 97 -210 136 -361 26 -103 28
-123 28 -310 0 -181 -2 -212 -27 -330 -116 -543 -248 -801 -571 -1119 -110
-108 -213 -196 -229 -196 -4 0 -75 -34 -159 -75 -204 -102 -349 -150 -531
-175 -97 -14 -317 -14 -417 0 -47 7 -94 13 -105 15 -105 14 -293 79 -388 132
-33 18 -61 33 -63 33 -9 0 -90 56 -169 115 -106 80 -356 333 -414 420 -109
163 -155 272 -209 500 -69 288 -79 497 -38 745 64 381 236 713 510 985 160
159 301 261 490 354 261 129 606 190 885 156z"/>
<path d="M4904 14151 c-140 -25 -230 -54 -361 -116 -275 -130 -500 -323 -665
-569 -71 -107 -97 -158 -171 -336 -69 -168 -87 -260 -87 -459 0 -181 3 -192
38 -180 47 15 293 57 412 69 440 46 1612 -99 2103 -261 174 -58 489 -184 574
-230 40 -21 75 -39 78 -39 8 0 27 50 30 80 2 14 11 63 20 110 30 146 8 458
-46 675 -44 172 -161 407 -295 591 -121 165 -135 181 -254 277 -207 167 -465
305 -665 356 -205 51 -519 65 -711 32z"/>
<path d="M15055 14154 c-300 -40 -578 -167 -855 -391 -119 -96 -133 -112 -254
-277 -134 -184 -251 -419 -295 -591 -54 -218 -75 -517 -47 -681 21 -125 36
-184 47 -184 5 0 37 15 71 34 128 70 496 212 687 266 530 150 1598 273 2001
230 119 -12 365 -54 412 -69 35 -12 38 -1 38 180 0 199 -18 291 -87 459 -74
178 -100 229 -171 336 -165 246 -390 439 -665 569 -136 64 -217 90 -365 116
-135 23 -361 24 -517 3z"/>
<path d="M9900 13159 c-238 -14 -469 -40 -716 -79 -325 -53 -449 -79 -689
-146 -197 -55 -248 -73 -214 -74 8 0 40 4 70 10 97 18 461 68 609 85 80 9 161
18 180 20 42 5 132 13 220 20 36 3 79 7 95 9 215 27 1355 27 1570 0 17 -2 59
-6 95 -9 88 -7 178 -15 220 -20 19 -2 100 -11 180 -20 148 -17 512 -67 609
-85 152 -28 99 -4 -144 64 -629 176 -1442 264 -2085 225z"/>
<path d="M9225 12309 c10 -65 59 -160 125 -242 63 -78 216 -232 292 -294 49
-40 250 -153 272 -153 25 0 39 57 33 132 -8 89 -45 169 -127 272 -147 185
-342 302 -534 322 l-68 7 7 -44z"/>
<path d="M11125 12335 c-171 -37 -335 -147 -466 -312 -81 -102 -118 -182 -126
-271 -6 -75 8 -132 33 -132 22 0 223 113 272 153 76 62 229 216 292 294 66 81
115 177 125 241 l7 42 -39 -1 c-21 0 -65 -7 -98 -14z"/>
<path d="M9845 9989 c-22 -4 -65 -9 -95 -11 -199 -17 -692 -147 -962 -252
-360 -141 -923 -416 -1245 -607 -45 -27 -86 -49 -92 -49 -6 0 -11 -4 -11 -8 0
-4 -41 -32 -90 -62 -50 -30 -109 -67 -133 -82 -23 -15 -49 -31 -57 -35 -8 -5
-56 -36 -107 -70 -51 -35 -97 -63 -102 -63 -5 0 -11 -4 -13 -8 -2 -7 -224
-160 -299 -207 -9 -5 -178 -118 -376 -250 -406 -271 -606 -402 -708 -464 -38
-23 -79 -47 -90 -54 -11 -7 -40 -25 -65 -42 -25 -16 -58 -37 -75 -46 -16 -9
-61 -35 -100 -57 -38 -23 -90 -52 -115 -65 -25 -13 -73 -39 -105 -59 -146 -86
-488 -261 -804 -409 -112 -52 -148 -74 -163 -98 l-20 -31 30 -38 c17 -20 63
-68 104 -104 40 -37 90 -83 111 -103 21 -19 42 -35 47 -35 5 0 13 -7 17 -15
19 -32 334 -262 395 -287 10 -4 57 -34 105 -66 49 -32 111 -71 138 -87 28 -15
52 -31 55 -34 3 -3 25 -17 50 -30 25 -13 52 -29 60 -36 8 -6 38 -22 65 -35 28
-14 77 -40 109 -58 33 -18 83 -43 110 -54 28 -12 62 -29 76 -38 14 -10 36 -21
50 -25 13 -4 30 -14 38 -21 7 -8 21 -14 31 -14 10 0 28 -11 41 -25 12 -13 25
-23 29 -22 3 0 16 -4 29 -11 12 -7 22 -10 22 -6 0 4 11 -3 24 -15 13 -12 27
-21 32 -20 9 2 46 -13 74 -30 8 -5 42 -21 75 -36 59 -26 91 -41 130 -63 11 -6
47 -23 80 -37 33 -15 114 -53 180 -85 66 -32 149 -72 185 -89 36 -17 72 -35
80 -40 16 -10 48 -22 67 -27 7 -1 26 -12 42 -23 16 -12 35 -21 43 -21 7 0 54
-21 103 -45 50 -25 94 -45 98 -45 5 0 32 -11 60 -24 29 -13 75 -33 102 -46 28
-12 68 -30 90 -40 22 -10 76 -33 120 -50 44 -18 104 -43 133 -56 29 -13 56
-24 60 -24 4 0 21 -7 37 -16 17 -9 69 -31 118 -50 48 -19 111 -45 140 -59 29
-13 71 -30 92 -38 126 -45 193 -71 220 -82 62 -27 281 -113 305 -120 14 -4 48
-17 75 -30 65 -30 217 -85 236 -85 7 0 29 -9 47 -20 18 -11 39 -20 47 -20 9 0
23 -4 33 -9 27 -15 174 -69 207 -77 17 -4 35 -10 40 -14 6 -3 30 -12 55 -19
25 -7 54 -17 65 -21 38 -16 289 -92 379 -115 280 -73 416 -91 656 -89 194 1
256 7 409 40 179 38 494 126 586 164 11 4 40 14 65 21 25 7 50 16 55 19 6 4
24 10 40 14 33 8 180 62 207 77 10 5 24 9 33 9 8 0 29 9 47 20 18 11 40 20 47
20 19 0 171 55 236 85 28 13 61 26 75 30 24 7 243 93 305 120 27 11 94 37 220
82 21 8 63 25 92 38 29 14 92 40 140 59 49 19 102 41 118 50 17 9 33 16 37 16
4 0 31 11 60 24 29 13 89 38 133 56 44 17 98 40 120 50 22 10 63 28 90 40 28
13 73 33 102 46 28 13 55 24 60 24 4 0 49 20 98 45 50 24 96 45 103 45 8 0 27
9 43 21 16 11 35 22 42 23 19 5 51 17 67 27 8 5 44 23 80 40 36 17 119 57 185
89 66 32 147 70 180 85 33 14 69 31 80 37 39 22 71 37 130 63 33 15 67 31 75
36 28 17 65 32 74 30 5 -1 19 8 32 20 13 12 24 19 24 15 0 -4 10 -1 23 6 12 7
25 11 28 11 4 -1 17 9 29 22 13 14 31 25 41 25 10 0 24 6 31 14 8 7 25 17 38
21 14 4 36 15 50 25 14 9 48 26 76 38 27 11 77 36 110 54 32 18 82 44 109 58
28 13 57 29 65 35 8 7 35 23 60 36 25 13 47 27 50 30 3 3 28 19 55 34 28 16
89 55 138 87 48 32 95 62 105 66 61 25 376 255 395 287 4 8 12 15 17 15 5 0
26 16 47 35 21 20 71 66 111 103 41 36 87 84 104 104 l30 38 -20 31 c-15 24
-51 46 -163 98 -316 148 -658 323 -804 409 -32 20 -80 46 -105 59 -25 13 -76
42 -115 65 -38 22 -83 48 -100 57 -16 9 -50 30 -75 46 -25 17 -54 35 -65 42
-11 7 -51 31 -90 54 -102 62 -302 193 -708 464 -198 132 -367 245 -376 250
-75 47 -297 200 -299 207 -2 4 -8 8 -13 8 -5 0 -51 28 -102 63 -51 34 -99 65
-107 70 -8 4 -34 20 -57 35 -24 15 -83 52 -133 82 -49 30 -90 58 -90 62 0 4
-5 8 -11 8 -6 0 -47 22 -92 49 -322 191 -885 466 -1245 607 -266 104 -762 234
-957 251 -27 2 -72 8 -100 12 -61 11 -734 10 -790 0z"/>
</g>
</svg>
